PathFileType	4	(X/Y/Z)	/Users/itak/Documents/Research/Walk-IL/dataset/trc/00180_00008.trc
DataRate	CameraRate	NumFrames	NumMarkers	Units	OrigDataRate	OrigDataStartFrame	OrigNumFrames
100.000000	100.000000	4	53	mm	100.000000	331	663
Frame#	Time	RPSI			LPSI			L3			STRN			T10			C7			CLAV			RBAK			LBAK			LSHO			LUPA			LAEL			LAOL			LWTS			LWPS			LFRA			LIFD			LHPS			LHTS			RSHO			RUPA			RAEL			RAOL			RWTS			RWPS			RFRA			RIFD			RHTS			RHPS			RBHD			LFHD			RFHD			LBHD			LHIP			RHIP			RASI			LASI			LKNE			LTHI			LANK			LTIP			LTOE			LMT1			LMT5			LHEE			RKNE			RTHI			RANK			RTIP			RTOE			RMT1			RMT5			RHEE			
		X1	Y1	Z1	X2	Y2	Z2	X3	Y3	Z3	X4	Y4	Z4	X5	Y5	Z5	X6	Y6	Z6	X7	Y7	Z7	X8	Y8	Z8	X9	Y9	Z9	X10	Y10	Z10	X11	Y11	Z11	X12	Y12	Z12	X13	Y13	Z13	X14	Y14	Z14	X15	Y15	Z15	X16	Y16	Z16	X17	Y17	Z17	X18	Y18	Z18	X19	Y19	Z19	X20	Y20	Z20	X21	Y21	Z21	X22	Y22	Z22	X23	Y23	Z23	X24	Y24	Z24	X25	Y25	Z25	X26	Y26	Z26	X27	Y27	Z27	X28	Y28	Z28	X29	Y29	Z29	X30	Y30	Z30	X31	Y31	Z31	X32	Y32	Z32	X33	Y33	Z33	X34	Y34	Z34	X35	Y35	Z35	X36	Y36	Z36	X37	Y37	Z37	X38	Y38	Z38	X39	Y39	Z39	X40	Y40	Z40	X41	Y41	Z41	X42	Y42	Z42	X43	Y43	Z43	X44	Y44	Z44	X45	Y45	Z45	X46	Y46	Z46	X47	Y47	Z47	X48	Y48	Z48	X49	Y49	Z49	X50	Y50	Z50	X51	Y51	Z51	X52	Y52	Z52	X53	Y53	Z53	

332	3.31	280.0704956054688	1029.324096679688	-699.1565551757812	258.8008422851562	1018.597534179688	-580.1376342773438	271.2741394042969	1059.4736328125	-643.26708984375	1.386514067649841	1262.49755859375	-656.5152587890625	302.7735290527344	1226.541625976562	-629.4068603515625	214.7858428955078	1487.932250976562	-605.9340209960938	19.84136962890625	1377.0380859375	-633.2598876953125	303.0708312988281	1330.09326171875	-723.4232788085938	214.8949890136719	1459.51611328125	-508.6608276367188	131.4004058837891	1435.865966796875	-437.7814636230469	182.0652313232422	1311.8203125	-364.9442138671875	216.5178375244141	1105.080200195312	-337.15234375	255.208251953125	1090.290283203125	-415.8472595214844	150.7322692871094	855.6966552734375	-327.5609741210938	240.7850952148438	854.0509643554688	-305.8218078613281	226.9526824951172	996.353271484375	-312.5866394042969	168.4452362060547	669.313232421875	-323.5680847167969	233.2087707519531	782.5598754882812	-298.2179565429688	161.2987518310547	779.7472534179688	-296.6733703613281	167.1203765869141	1483.523681640625	-788.3062744140625	193.7576904296875	1430.552734375	-864.685302734375	209.1304779052734	1169.184204101562	-990.2505493164062	202.6747741699219	1131.420166015625	-897.4326171875	40.95613479614258	968.407958984375	-1048.034790039062	120.6371231079102	951.637451171875	-1088.129028320312	178.6503295898438	1106.637451171875	-1029.338256835938	-2.043168544769287	785.938232421875	-1081.199584960938	4.484966278076172	885.7770385742188	-1085.909545898438	81.26791381835938	876.95849609375	-1111.868408203125	109.1078948974609	1655.064453125	-674.4632568359375	-28.5235538482666	1645.412109375	-505.3325500488281	-60.28310012817383	1663.44189453125	-630.3521728515625	147.2953796386719	1646.48876953125	-543.6907348632812	132.7487945556641	950.0648193359375	-479.489501953125	150.1399383544922	993.140625	-849.8430786132812	57.15532684326172	1015.73193359375	-813.1871948242188	22.43938827514648	994.5928955078125	-557.888427734375	-93.77915191650391	496.9533996582031	-569.6287841796875	-26.50863647460938	619.8463745117188	-520.164306640625	-195.0918426513672	38.29561996459961	-648.7404174804688	-134.9193725585938	270.3280944824219	-595.1179809570312	-385.2549133300781	132.3580474853516	-601.7756958007812	-359.3682250976562	116.4449768066406	-661.9586791992188	-279.3857421875	69.22605895996094	-577.5513305664062	-168.810302734375	33.43803405761719	-730.5053100585938	243.8517913818359	505.8456115722656	-833.5425415039062	140.582275390625	760.7816162109375	-870.9093017578125	471.0236511230469	58.80206298828125	-791.1898803710938	266.7766418457031	383.8138122558594	-820.966064453125	256.3106384277344	39.41387939453125	-854.412841796875	285.9189453125	43.06727981567383	-790.8695678710938	388.5263366699219	31.80940628051758	-870.3047485351562	489.4861145019531	68.31336975097656	-709.8737182617188	
333	3.32	268.5891723632812	1027.593505859375	-699.3270263671875	247.850830078125	1016.352416992188	-580.3119506835938	260.0555725097656	1057.267456054688	-643.429931640625	-9.531465530395508	1260.786499023438	-654.4696655273438	292.0397644042969	1224.161376953125	-629.7023315429688	204.7862701416016	1485.762939453125	-605.0892333984375	9.166573524475098	1375.21533203125	-631.1273193359375	291.9544372558594	1327.946044921875	-723.5466918945312	205.6931304931641	1457.098022460938	-507.88134765625	122.8437423706055	1433.2587890625	-436.2502136230469	174.6266021728516	1308.5751953125	-365.0494079589844	209.9696807861328	1101.723266601562	-339.8060913085938	246.8448333740234	1087.392456054688	-419.4346313476562	144.9950408935547	852.1084594726562	-330.4223327636719	235.2634429931641	850.5169677734375	-310.7079772949219	221.1181488037109	992.8386840820312	-316.2764587402344	163.0888824462891	665.6668090820312	-328.3130187988281	227.9882965087891	778.97021484375	-303.5269775390625	156.1519775390625	775.90576171875	-300.5426940917969	155.7452392578125	1481.64990234375	-787.1734619140625	181.6836242675781	1428.672119140625	-863.75	195.7391204833984	1167.632080078125	-989.9639282226562	189.6986541748047	1129.561889648438	-897.1620483398438	27.01034736633301	967.2463989257812	-1047.3486328125	106.3965072631836	950.4575805664062	-1087.85986328125	164.9415283203125	1105.235107421875	-1029.002807617188	-16.50643348693848	785.0128784179688	-1080.897705078125	-9.734984397888184	884.7827758789062	-1085.293823242188	66.81607055664062	875.8980712890625	-1111.667358398438	99.07396697998047	1653.0791015625	-673.0389404296875	-37.22982788085938	1644.04638671875	-502.7583312988281	-69.94377136230469	1661.96826171875	-627.5518798828125	138.2651977539062	1644.556396484375	-542.5659790039062	122.1615753173828	947.5162963867188	-479.1895446777344	137.7787628173828	991.94140625	-849.3650512695312	44.92713165283203	1014.21533203125	-812.393798828125	11.4099292755127	992.3385009765625	-556.8207397460938	-102.055549621582	494.6817016601562	-569.4212646484375	-34.41810989379883	616.3670043945312	-519.822021484375	-213.7740631103516	38.22932815551758	-645.4232177734375	-148.0740661621094	269.4656677246094	-593.6272583007812	-401.53173828125	135.7999572753906	-596.4544067382812	-376.9531555175781	118.8967895507812	-656.8385009765625	-296.3128967285156	71.00289154052734	-573.4326171875	-188.5338134765625	32.64945983886719	-727.858642578125	235.2015380859375	505.5557250976562	-834.4207153320312	129.6522064208984	759.818115234375	-871.0689697265625	470.3677368164062	61.71822738647461	-791.759765625	260.1972351074219	383.6527709960938	-821.9512329101562	256.1676940917969	39.40290832519531	-854.4824829101562	285.6570129394531	43.10931396484375	-791.0517578125	387.8694152832031	32.48995590209961	-870.4236450195312	488.7698669433594	72.47276306152344	-710.5025634765625	
334	3.33	256.8299255371094	1026.001342773438	-699.208251953125	236.5592498779297	1014.220031738281	-580.212158203125	248.5564422607422	1055.168701171875	-643.3189697265625	-20.61028671264648	1259.278442382812	-652.22802734375	281.0892639160156	1221.866333007812	-629.6610717773438	194.6872253417969	1483.710327148438	-603.9346923828125	-1.564518570899963	1373.574340820312	-628.7609252929688	280.7374877929688	1325.892333984375	-723.3057250976562	196.345703125	1454.7939453125	-506.8082885742188	114.1042556762695	1430.809692382812	-434.4506225585938	166.9739227294922	1305.465087890625	-364.9197692871094	203.1363677978516	1098.481079101562	-342.3622131347656	238.1653747558594	1084.667724609375	-422.8861083984375	138.9425048828125	848.6455078125	-333.3999328613281	229.418212890625	847.1000366210938	-315.6882934570312	214.986083984375	989.4402465820312	-319.9716796875	157.3997650146484	662.1603393554688	-333.2955017089844	222.4274597167969	775.4949340820312	-308.9821166992188	150.7024230957031	772.1865844726562	-304.5679931640625	144.3641052246094	1479.911254882812	-785.75048828125	169.6650848388672	1426.90283203125	-862.4961547851562	182.5427093505859	1166.126708984375	-989.206298828125	176.8627624511719	1127.817626953125	-896.4180297851562	13.32486343383789	966.0776977539062	-1046.206665039062	92.45510101318359	949.2479858398438	-1087.067626953125	151.4692687988281	1103.852783203125	-1028.191162109375	-30.68659210205078	784.064208984375	-1080.051025390625	-23.65165901184082	883.757568359375	-1084.189086914062	52.68301391601562	874.8035888671875	-1110.903076171875	89.04561614990234	1651.255004882812	-671.3938598632812	-46.04316329956055	1642.903564453125	-500.0529174804688	-79.62963104248047	1660.7080078125	-624.6351318359375	129.1421203613281	1642.785034179688	-541.1930541992188	111.1864776611328	945.2023315429688	-478.7387084960938	125.2606430053711	990.918212890625	-848.7051391601562	32.51864624023438	1012.928588867188	-811.5049438476562	0.01786904782056808	990.3223266601562	-555.6942138671875	-111.356330871582	492.7795715332031	-568.832275390625	-43.42055511474609	613.5567626953125	-519.4092407226562	-229.0192565917969	37.77127456665039	-642.1427612304688	-160.4506530761719	268.4307861328125	-591.9696044921875	-415.3139953613281	137.0859069824219	-591.9750366210938	-391.646240234375	119.3894500732422	-652.4228515625	-310.3414611816406	71.62612915039062	-569.7128295898438	-204.4947509765625	31.5954647064209	-725.0858764648438	225.9701843261719	505.298828125	-835.4669189453125	118.3670272827148	759.0215454101562	-871.1908569335938	469.5832824707031	64.96150207519531	-792.439453125	253.1680908203125	383.5437316894531	-823.1421508789062	256.0148315429688	39.40752029418945	-854.5347290039062	285.3446655273438	43.21133041381836	-791.2614135742188	387.1075134277344	33.2359619140625	-870.5953979492188	487.8470764160156	77.148681640625	-711.255126953125	
335	3.34	244.7657470703125	1024.563110351562	-698.8173828125	224.9229125976562	1012.236633300781	-579.8467407226562	236.76708984375	1053.210083007812	-642.9539184570312	-31.8408088684082	1258.017700195312	-649.80322265625	269.9247741699219	1219.691528320312	-629.2879638671875	184.503173828125	1481.81005859375	-602.4719848632812	-12.34907722473145	1372.159301757812	-626.1700439453125	269.4280700683594	1323.9638671875	-722.7001953125	186.8556365966797	1452.640380859375	-505.4441528320312	105.1795959472656	1428.556762695312	-432.3914794921875	159.0797119140625	1302.537963867188	-364.5411682128906	195.9917755126953	1095.401489257812	-344.7925415039062	229.1553344726562	1082.168701171875	-426.1695861816406	132.5542297363281	845.347412109375	-336.4590759277344	223.2414245605469	843.8556518554688	-320.7359924316406	208.5347290039062	986.208740234375	-323.6399536132812	151.3643798828125	658.8416748046875	-338.4918518066406	216.5242919921875	772.1864013671875	-314.5607604980469	144.9477081298828	768.6343383789062	-308.7142333984375	132.9888610839844	1478.346801757812	-784.0436401367188	157.716552734375	1425.284057617188	-860.9306640625	169.5387420654297	1164.698120117188	-987.9691162109375	164.1476898193359	1126.216796875	-895.1898803710938	-0.09534266591072083	964.9216918945312	-1044.603149414062	78.82817840576172	948.0435791015625	-1085.75146484375	138.2307586669922	1102.520263671875	-1026.898071289062	-44.55618286132812	783.1038208007812	-1078.653564453125	-37.25817108154297	882.7227172851562	-1082.594116210938	38.88113021850586	873.6976318359375	-1109.576904296875	79.010986328125	1649.628051757812	-669.5127563476562	-54.97336196899414	1641.999389648438	-497.204833984375	-89.35135650634766	1659.689697265625	-621.5886840820312	119.926872253418	1641.202514648438	-539.5584106445312	99.80815124511719	943.1947631835938	-478.1231689453125	112.5571823120117	990.0767211914062	-847.8699951171875	19.90001106262207	1011.900512695312	-810.51123046875	-11.73746681213379	988.6067504882812	-554.5068359375	-121.6722259521484	491.2205200195312	-567.7973022460938	-53.61974334716797	611.4912719726562	-518.8672485351562	-240.9107971191406	36.84623718261719	-639.1954956054688	-172.0714263916016	267.1461486816406	-590.2249145507812	-426.6887512207031	136.0127868652344	-588.204833984375	-403.6328430175781	117.8036651611328	-648.661376953125	-321.4707946777344	70.93156433105469	-566.505859375	-216.8926391601562	30.28294944763184	-722.518310546875	216.1168060302734	505.0704650878906	-836.7046508789062	106.6953964233398	758.4019165039062	-871.2559204101562	468.6338806152344	68.55303192138672	-793.2510986328125	245.6657867431641	383.4937744140625	-824.5663452148438	255.8677520751953	39.43185043334961	-854.568359375	284.9811706542969	43.38570404052734	-791.5016479492188	386.2473449707031	34.03307342529297	-870.82763671875	486.6575927734375	82.38787841796875	-712.1583251953125	
